<svg width="142" height="30" viewBox="0 0 142 30" fill="none" xmlns="http://www.w3.org/2000/svg">
<path d="M4.25568 11.1491C6.4929 11.1491 7.91477 9.57315 7.91477 7.21165C7.91477 4.84517 6.4929 3.2642 4.25568 3.2642C2.01847 3.2642 0.596591 4.84517 0.596591 7.21165C0.596591 9.57315 2.01847 11.1491 4.25568 11.1491ZM4.26562 9.70739C3.0277 9.70739 2.42116 8.60369 2.42116 7.20668C2.42116 5.80966 3.0277 4.69105 4.26562 4.69105C5.48366 4.69105 6.0902 5.80966 6.0902 7.20668C6.0902 8.60369 5.48366 9.70739 4.26562 9.70739ZM9.44229 13.8636H11.242V9.79688H11.3166C11.6 10.3537 12.1916 11.1342 13.5041 11.1342C15.3038 11.1342 16.6511 9.70739 16.6511 7.19176C16.6511 4.64631 15.264 3.2642 13.4991 3.2642C12.1518 3.2642 11.59 4.07457 11.3166 4.62642H11.2122V3.36364H9.44229V13.8636ZM11.2072 7.18182C11.2072 5.70028 11.8436 4.74077 13.002 4.74077C14.2001 4.74077 14.8166 5.75994 14.8166 7.18182C14.8166 8.61364 14.1902 9.65767 13.002 9.65767C11.8535 9.65767 11.2072 8.66335 11.2072 7.18182ZM22.0055 3.36364H20.4991V1.53409H18.6994V3.36364H17.6156V4.75568H18.6994V9.00142C18.6895 10.4382 19.7335 11.1442 21.0858 11.1044C21.5978 11.0895 21.9508 10.9901 22.1447 10.9254L21.8414 9.51847C21.742 9.54332 21.5382 9.58807 21.3145 9.58807C20.862 9.58807 20.4991 9.42898 20.4991 8.70312V4.75568H22.0055V3.36364ZM24.6193 11.1094C25.206 11.1094 25.7081 10.6222 25.7131 10.0156C25.7081 9.41903 25.206 8.93182 24.6193 8.93182C24.0128 8.93182 23.5206 9.41903 23.5256 10.0156C23.5206 10.6222 24.0128 11.1094 24.6193 11.1094ZM33.6067 5.3821C33.3581 4.08949 32.324 3.2642 30.5343 3.2642C28.6948 3.2642 27.4419 4.16903 27.4469 5.58097C27.4419 6.6946 28.128 7.4304 29.5946 7.73366L30.8972 8.0071C31.5982 8.16122 31.9263 8.4446 31.9263 8.87713C31.9263 9.39915 31.3596 9.7919 30.5044 9.7919C29.6792 9.7919 29.1422 9.43395 28.9881 8.74787L27.2331 8.9169C27.4569 10.3189 28.6351 11.1491 30.5094 11.1491C32.4185 11.1491 33.7658 10.1598 33.7708 8.71307C33.7658 7.62429 33.0648 6.9581 31.623 6.64489L30.3205 6.36648C29.5449 6.19247 29.2367 5.92401 29.2417 5.48153C29.2367 4.96449 29.8084 4.60653 30.5591 4.60653C31.3894 4.60653 31.8269 5.05895 31.9661 5.56108L33.6067 5.3821ZM40.122 7.78835C40.122 8.9517 39.2917 9.52841 38.4963 9.52841C37.6312 9.52841 37.0545 8.9169 37.0545 7.94744V3.36364H35.2548V8.22585C35.2548 10.0604 36.2988 11.0994 37.8002 11.0994C38.9437 11.0994 39.7491 10.4979 40.0971 9.64276H40.1767V11H41.9217V3.36364H40.122V7.78835ZM45.5721 0.818182H43.7724V11H45.5721V0.818182ZM51.236 3.36364H49.7296V1.53409H47.9299V3.36364H46.8461V4.75568H47.9299V9.00142C47.9199 10.4382 48.964 11.1442 50.3162 11.1044C50.8283 11.0895 51.1813 10.9901 51.3752 10.9254L51.0719 9.51847C50.9725 9.54332 50.7686 9.58807 50.5449 9.58807C50.0925 9.58807 49.7296 9.42898 49.7296 8.70312V4.75568H51.236V3.36364ZM54.9386 11.1541C56.1367 11.1541 56.8526 10.5923 57.1808 9.95099H57.2404V11H58.9705V5.8892C58.9705 3.87074 57.3249 3.2642 55.8683 3.2642C54.2624 3.2642 53.0295 3.98011 52.6317 5.37216L54.3121 5.6108C54.4911 5.08878 54.9982 4.64134 55.8782 4.64134C56.7134 4.64134 57.1708 5.06889 57.1708 5.8196V5.84943C57.1708 6.36648 56.6289 6.39134 55.2816 6.53551C53.8001 6.6946 52.3832 7.13707 52.3832 8.85724C52.3832 10.3587 53.4819 11.1541 54.9386 11.1541ZM55.4059 9.83168C54.6552 9.83168 54.1183 9.48864 54.1183 8.82741C54.1183 8.13636 54.7198 7.84801 55.5252 7.73366C55.9975 7.66903 56.9421 7.54972 57.1758 7.3608V8.26065C57.1758 9.1108 56.4897 9.83168 55.4059 9.83168ZM62.5799 6.52557C62.5799 5.42188 63.2461 4.78551 64.1957 4.78551C65.1254 4.78551 65.6822 5.39702 65.6822 6.41619V11H67.4819V6.13778C67.4869 4.30824 66.4428 3.2642 64.8668 3.2642C63.7234 3.2642 62.9379 3.81108 62.5898 4.66122H62.5004V3.36364H60.7802V11H62.5799V6.52557ZM75.7099 13.8537C76.9876 13.8537 78.3448 13.5305 78.9663 13.2074L78.5437 11.9446C78.0714 12.1236 76.9279 12.4517 75.7944 12.4517C72.5032 12.4517 70.7234 10.6719 70.7234 7.45028C70.7234 4.44744 72.4237 2.3544 75.6701 2.3544C78.32 2.3544 80.2937 3.85582 80.2887 6.67969C80.2937 8.73295 79.9755 9.65767 79.18 9.65767C78.7575 9.65767 78.5089 9.3196 78.5039 8.82741V4.09446H77.1168V4.65128H77.0472C76.8881 4.21378 75.9336 3.81108 74.8548 3.96023C73.4677 4.14418 72.1353 5.28267 72.1353 7.41051C72.1353 9.60298 73.3285 10.8906 74.9492 10.9652C76.0778 11.0199 76.9528 10.5178 77.1864 9.92614H77.2461C77.3654 10.6719 78.0217 11.0795 79.0259 11.0249C81.1637 10.9453 81.7752 9.03622 81.7702 6.7642C81.7752 3.49787 79.5778 0.972301 75.7049 0.972301C71.5785 0.972301 69.1772 3.51278 69.1722 7.47017C69.1772 11.522 71.5387 13.8537 75.7099 13.8537ZM75.3619 9.53835C74.0643 9.53835 73.6268 8.48438 73.6218 7.35085C73.6268 6.21733 74.2582 5.38707 75.3718 5.38707C76.6097 5.38707 77.0671 5.99361 77.0721 7.34588C77.087 8.79759 76.6197 9.53835 75.3619 9.53835ZM83.2978 11H85.0975V6.35653C85.0975 5.4169 85.7239 4.78054 86.4995 4.78054C87.2601 4.78054 87.7821 5.29261 87.7821 6.07812V11H89.5471V6.23722C89.5471 5.37713 90.0591 4.78054 90.9292 4.78054C91.655 4.78054 92.2317 5.2081 92.2317 6.1527V11H94.0364V5.87429C94.0364 4.16903 93.052 3.2642 91.65 3.2642C90.5414 3.2642 89.6962 3.81108 89.3581 4.66122H89.2786C88.9853 3.79616 88.2445 3.2642 87.2154 3.2642C86.1912 3.2642 85.4256 3.79119 85.1074 4.66122H85.0179V3.36364H83.2978V11ZM98.0597 11.1541C99.2578 11.1541 99.9737 10.5923 100.302 9.95099H100.362V11H102.092V5.8892C102.092 3.87074 100.446 3.2642 98.9893 3.2642C97.3835 3.2642 96.1506 3.98011 95.7528 5.37216L97.4332 5.6108C97.6122 5.08878 98.1193 4.64134 98.9993 4.64134C99.8345 4.64134 100.292 5.06889 100.292 5.8196V5.84943C100.292 6.36648 99.75 6.39134 98.4027 6.53551C96.9212 6.6946 95.5043 7.13707 95.5043 8.85724C95.5043 10.3587 96.603 11.1541 98.0597 11.1541ZM98.527 9.83168C97.7763 9.83168 97.2393 9.48864 97.2393 8.82741C97.2393 8.13636 97.8409 7.84801 98.6463 7.73366C99.1186 7.66903 100.063 7.54972 100.297 7.3608V8.26065C100.297 9.1108 99.6108 9.83168 98.527 9.83168ZM103.901 11H105.701V3.36364H103.901V11ZM104.806 2.27983C105.378 2.27983 105.845 1.84233 105.845 1.3054C105.845 0.763494 105.378 0.325994 104.806 0.325994C104.229 0.325994 103.762 0.763494 103.762 1.3054C103.762 1.84233 104.229 2.27983 104.806 2.27983ZM109.351 0.818182H107.552V11H109.351V0.818182ZM112.311 11.1094C112.897 11.1094 113.4 10.6222 113.404 10.0156C113.4 9.41903 112.897 8.93182 112.311 8.93182C111.704 8.93182 111.212 9.41903 111.217 10.0156C111.212 10.6222 111.704 11.1094 112.311 11.1094ZM115.263 11H117.062V6.51065C117.062 5.54119 117.793 4.85511 118.782 4.85511C119.086 4.85511 119.464 4.9098 119.618 4.95952V3.30398C119.454 3.27415 119.17 3.25426 118.971 3.25426C118.096 3.25426 117.366 3.75142 117.087 4.63636H117.008V3.36364H115.263V11ZM125.681 7.78835C125.681 8.9517 124.85 9.52841 124.055 9.52841C123.19 9.52841 122.613 8.9169 122.613 7.94744V3.36364H120.813V8.22585C120.813 10.0604 121.857 11.0994 123.359 11.0994C124.502 11.0994 125.308 10.4979 125.656 9.64276H125.735V11H127.48V3.36364H125.681V7.78835Z" fill="#111111"/>
<path d="M1.15909 27H1.95597V22.9901H6.90767V27H7.70455V18.2727H6.90767V22.2741H1.95597V18.2727H1.15909V27ZM11.6889 27.1491C12.7798 27.1491 13.4446 26.544 13.7173 25.9645H13.7642V27H14.5227V22.5554C14.5227 20.7997 13.2017 20.3651 12.2003 20.3651C11.1989 20.3651 10.1676 20.7614 9.72443 21.831L10.4446 22.0909C10.6832 21.5284 11.2756 21.0469 12.2216 21.0469C13.2145 21.0469 13.7642 21.5923 13.7642 22.4872V22.6406C13.7642 23.1349 13.1506 23.1435 12.0511 23.2798C10.5724 23.4631 9.53693 23.8764 9.53693 25.1719C9.53693 26.4332 10.5 27.1491 11.6889 27.1491ZM11.7912 26.4545C10.9347 26.4545 10.2955 25.9986 10.2955 25.206C10.2955 24.4134 10.9432 24.081 12.0511 23.9446C12.5881 23.8807 13.5426 23.7614 13.7642 23.544V24.4901C13.7642 25.5639 13.0014 26.4545 11.7912 26.4545ZM22.4723 27.1364C23.8359 27.1364 24.7947 26.2756 24.9695 25.0909H24.2024C24.0277 25.9261 23.3416 26.4418 22.4723 26.4418C21.1896 26.4418 20.3416 25.3253 20.3416 23.7315C20.3416 22.1463 21.2152 21.0554 22.4723 21.0554C23.4055 21.0554 24.0362 21.6562 24.1982 22.3977H24.9652C24.7862 21.1832 23.772 20.3651 22.4595 20.3651C20.7464 20.3651 19.5788 21.7884 19.5788 23.7571C19.5788 25.7088 20.7124 27.1364 22.4723 27.1364ZM26.5952 27H29.5483C30.8182 27 31.6236 26.25 31.6236 25.2273C31.6236 24.2599 30.9375 23.6847 30.1832 23.5526C30.9332 23.3608 31.4233 22.9048 31.4233 22.125C31.4233 21.1065 30.5668 20.4545 29.1733 20.4545H26.5952V27ZM27.3196 26.2969V23.9531H29.6335C30.3707 23.9531 30.848 24.4304 30.848 25.1634C30.848 25.8537 30.3452 26.2969 29.5483 26.2969H27.3196ZM27.3196 23.2798V21.1577H29.1733C30.1108 21.1577 30.6605 21.5327 30.6605 22.1719C30.6648 22.8494 30.1023 23.2798 29.2202 23.2798H27.3196ZM37.2241 27H37.9485V20.4545H35.4215C34.0067 20.4545 33.2269 21.1193 33.2269 22.3168C33.2269 23.2415 33.6744 23.8509 34.5011 24.081L32.8136 27H33.6445L35.2724 24.1832C35.2979 24.1832 35.3192 24.1832 35.3406 24.1832H37.2241V27ZM37.2241 23.4673H35.3406C34.4542 23.4673 33.9897 23.0838 33.9897 22.3168C33.9897 21.5497 34.4798 21.1619 35.4215 21.1577H37.2241V23.4673ZM39.5444 25.3295C39.5827 26.4077 40.5543 27.1364 41.9137 27.1364C43.3242 27.1364 44.3001 26.3565 44.3001 25.1974C44.3001 24.3707 43.8058 23.706 43.1112 23.6293V23.5653C43.7205 23.3778 44.1637 22.9091 44.1637 22.1889C44.1637 21.1491 43.3072 20.3693 41.9819 20.3693C40.6822 20.3693 39.7362 21.1108 39.6978 22.1761H40.4947C40.5288 21.5156 41.1552 21.0511 42.016 21.0511C42.864 21.0511 43.3924 21.5114 43.3924 22.2102C43.3924 22.8239 42.9833 23.2287 42.2035 23.2713H41.0742V23.9659H42.2163C42.9705 23.9787 43.5288 24.4645 43.5288 25.1974C43.5288 26.0114 42.8384 26.4418 41.9009 26.4418C40.9933 26.4418 40.3967 26.0284 40.3498 25.3295H39.5444ZM46.6193 25.9219V20.4545H45.8608V27H46.7812L50.2244 21.5327V27H50.983V20.4545H50.0753L46.6193 25.9219ZM56.3608 27H59.3139C60.5838 27 61.3892 26.25 61.3892 25.2273C61.3892 24.2599 60.7031 23.6847 59.9489 23.5526C60.6989 23.3608 61.1889 22.9048 61.1889 22.125C61.1889 21.1065 60.3324 20.4545 58.9389 20.4545H56.3608V27ZM57.0852 26.2969V23.9531H59.3991C60.1364 23.9531 60.6136 24.4304 60.6136 25.1634C60.6136 25.8537 60.1108 26.2969 59.3139 26.2969H57.0852ZM57.0852 23.2798V21.1577H58.9389C59.8764 21.1577 60.4261 21.5327 60.4261 22.1719C60.4304 22.8494 59.8679 23.2798 58.9858 23.2798H57.0852ZM65.7837 27H66.0565C67.5266 27 67.7951 25.9048 67.8974 23.7741L68.021 21.1705H70.6971V27H71.4599V20.4545H67.3008L67.1602 23.5185C67.0621 25.6875 66.9215 26.2841 65.9883 26.2841H65.7837V27ZM73.696 20.4545H72.9332V27H73.696V24.1534H75.6179C75.7628 25.9347 76.9006 27.1364 78.4815 27.1364C80.1776 27.1364 81.3622 25.7514 81.3622 23.7571C81.3622 21.75 80.1776 20.3651 78.4815 20.3651C76.875 20.3651 75.7287 21.6051 75.6094 23.4375H73.696V20.4545ZM78.4815 26.4418C77.1222 26.4418 76.3636 25.223 76.3636 23.7571C76.3636 22.2912 77.1264 21.0554 78.4815 21.0554C79.8409 21.0554 80.6037 22.2912 80.6037 23.7571C80.6037 25.223 79.8452 26.4418 78.4815 26.4418ZM87.8629 18C87.5433 18.2642 87.0703 18.2642 86.4439 18.2642C86.2351 18.2642 86.0092 18.2642 85.7663 18.2727C83.7592 18.3409 82.8132 19.8707 82.8132 22.9219V23.608C82.8132 25.9134 83.9382 27.1364 85.6555 27.1364C87.3558 27.1364 88.4851 25.8494 88.4851 23.8338C88.4851 21.7969 87.326 20.6591 85.8217 20.6591C84.8629 20.6591 84.0107 21.1364 83.576 22.027H83.4908C83.6143 20.1051 84.2791 19.0568 85.8004 18.9844C85.9709 18.9759 86.1371 18.9716 86.299 18.9673C87.13 18.9418 87.8075 18.9205 88.2592 18.4815L87.8629 18ZM85.6555 26.4418C84.3643 26.4418 83.576 25.4616 83.576 23.8764C83.5888 22.419 84.3771 21.3537 85.6726 21.3537C86.9084 21.3537 87.7266 22.2699 87.7266 23.8338C87.7266 25.4148 86.9254 26.4418 85.6555 26.4418ZM92.69 27.1364C94.386 27.1364 95.5707 25.7514 95.5707 23.7571C95.5707 21.75 94.386 20.3651 92.69 20.3651C90.994 20.3651 89.8093 21.75 89.8093 23.7571C89.8093 25.7514 90.994 27.1364 92.69 27.1364ZM92.69 26.4418C91.3306 26.4418 90.5721 25.223 90.5721 23.7571C90.5721 22.2912 91.3306 21.0554 92.69 21.0554C94.0494 21.0554 94.8079 22.2912 94.8079 23.7571C94.8079 25.223 94.0494 26.4418 92.69 26.4418ZM99.8821 27.1364C101.195 27.1364 102.077 26.4247 102.375 25.6023L101.655 25.3679C101.403 25.956 100.811 26.4418 99.8821 26.4418C98.544 26.4418 97.696 25.4659 97.6619 23.9531H102.537V23.5781C102.537 21.392 101.186 20.3651 99.767 20.3651C98.071 20.3651 96.8991 21.7841 96.8991 23.7656C96.8991 25.7514 98.0497 27.1364 99.8821 27.1364ZM97.6662 23.2841C97.7472 22.0653 98.5696 21.0554 99.767 21.0554C100.939 21.0554 101.761 22.0227 101.761 23.2841H97.6662ZM107.583 27H110.537C111.806 27 112.612 26.25 112.612 25.2273C112.612 24.2599 111.926 23.6847 111.172 23.5526C111.922 23.3608 112.412 22.9048 112.412 22.125C112.412 21.1065 111.555 20.4545 110.162 20.4545H107.583V27ZM108.308 26.2969V23.9531H110.622C111.359 23.9531 111.836 24.4304 111.836 25.1634C111.836 25.8537 111.333 26.2969 110.537 26.2969H108.308ZM108.308 23.2798V21.1577H110.162C111.099 21.1577 111.649 21.5327 111.649 22.1719C111.653 22.8494 111.091 23.2798 110.208 23.2798H108.308ZM114.262 29.4545H115.025V25.7855H115.093C115.353 26.3864 115.915 27.1364 117.104 27.1364C118.707 27.1364 119.798 25.7727 119.798 23.7443C119.798 21.7244 118.711 20.3651 117.092 20.3651C115.89 20.3651 115.357 21.1151 115.093 21.7031H114.999V20.4545H114.262V29.4545ZM115.012 23.7315C115.012 22.1634 115.732 21.0554 117.011 21.0554C118.327 21.0554 119.035 22.223 119.035 23.7315C119.035 25.2571 118.315 26.4418 117.011 26.4418C115.745 26.4418 115.012 25.3125 115.012 23.7315ZM124.105 27.1364C125.417 27.1364 126.299 26.4247 126.598 25.6023L125.877 25.3679C125.626 25.956 125.034 26.4418 124.105 26.4418C122.767 26.4418 121.919 25.4659 121.885 23.9531H126.76V23.5781C126.76 21.392 125.409 20.3651 123.99 20.3651C122.294 20.3651 121.122 21.7841 121.122 23.7656C121.122 25.7514 122.272 27.1364 124.105 27.1364ZM121.889 23.2841C121.97 22.0653 122.792 21.0554 123.99 21.0554C125.162 21.0554 125.984 22.0227 125.984 23.2841H121.889ZM131.853 25.9389L129.415 20.4545H128.431V27H129.19V21.5966L131.55 27H132.156L134.516 21.6605V27H135.275V20.4545H134.312L131.853 25.9389ZM141.228 27H141.952V20.4545H139.425C138.011 20.4545 137.231 21.1193 137.231 22.3168C137.231 23.2415 137.678 23.8509 138.505 24.081L136.817 27H137.648L139.276 24.1832C139.302 24.1832 139.323 24.1832 139.344 24.1832H141.228V27ZM141.228 23.4673H139.344C138.458 23.4673 137.994 23.0838 137.994 22.3168C137.994 21.5497 138.484 21.1619 139.425 21.1577H141.228V23.4673Z" fill="#3F4E65"/>
</svg>
