<svg width="96" height="25" viewBox="0 0 96 25" fill="none" xmlns="http://www.w3.org/2000/svg">
<rect width="96" height="25" rx="5" fill="#1FD85D"/>
<path d="M17.2454 8.72727H11.45V16H12.7568V9.82102H15.9386V16H17.2454V8.72727ZM25.7698 12.3636C25.7698 10.0128 24.3352 8.62784 22.4282 8.62784C20.5177 8.62784 19.0866 10.0128 19.0866 12.3636C19.0866 14.7109 20.5177 16.0994 22.4282 16.0994C24.3352 16.0994 25.7698 14.7145 25.7698 12.3636ZM24.4452 12.3636C24.4452 14.0185 23.6143 14.9169 22.4282 14.9169C21.2457 14.9169 20.4111 14.0185 20.4111 12.3636C20.4111 10.7088 21.2457 9.81037 22.4282 9.81037C23.6143 9.81037 24.4452 10.7088 24.4452 12.3636ZM33.3993 8.72727H27.6039V16H28.9107V9.82102H32.0925V16H33.3993V8.72727ZM36.075 16.0994H36.5935C37.7582 16.0994 38.1879 15.4247 38.5324 14.6577L41.0395 8.72727H39.683L38.1169 12.6193L36.3058 8.72727H34.928L37.5274 14.0753L37.4315 14.3203C37.2824 14.7287 37.0551 14.9915 36.4905 14.9915H36.075V16.0994ZM41.9556 16H42.3107C44.0117 16 44.484 14.853 44.587 12.4631L44.7006 9.81037H46.9485V16H48.2375V8.72727H43.4719L43.3512 12.0547C43.273 14.1179 42.9961 14.8494 42.1615 14.8956L41.9556 14.9062V16ZM55.195 16V8.72727H52.4677C50.7987 8.72727 49.9038 9.66477 49.9038 11.0533C49.9038 12.0405 50.3548 12.772 51.2106 13.1165L49.6375 16H51.1076L52.5352 13.3366H53.8775V16H55.195ZM53.8775 12.2429H52.663C51.6865 12.2429 51.2461 11.8274 51.2461 11.0533C51.2461 10.2791 51.6865 9.82812 52.6701 9.82812H53.8775V12.2429ZM57.0779 16H58.3953V13.5426H59.7874C61.4671 13.5426 62.3691 12.5341 62.3691 11.1349C62.3691 9.74645 61.4777 8.72727 59.8051 8.72727H57.0779V16ZM58.3953 12.4595V9.82812H59.6027C60.5899 9.82812 61.0267 10.3608 61.0267 11.1349C61.0267 11.9091 60.5899 12.4595 59.6098 12.4595H58.3953ZM63.9634 16H65.2809V12.9105H68.6509V16H69.9719V8.72727H68.6509V11.8061H65.2809V8.72727H63.9634V16ZM78.3534 12.3636C78.3534 10.0128 76.9187 8.62784 75.0118 8.62784C73.1013 8.62784 71.6702 10.0128 71.6702 12.3636C71.6702 14.7109 73.1013 16.0994 75.0118 16.0994C76.9187 16.0994 78.3534 14.7145 78.3534 12.3636ZM77.0288 12.3636C77.0288 14.0185 76.1979 14.9169 75.0118 14.9169C73.8293 14.9169 72.9947 14.0185 72.9947 12.3636C72.9947 10.7088 73.8293 9.81037 75.0118 9.81037C76.1979 9.81037 77.0288 10.7088 77.0288 12.3636ZM80.049 16H84.8075V14.8956H81.3664V12.9105H84.5341V11.8061H81.3664V9.83168H84.7791V8.72727H80.049V16Z" fill="white"/>
</svg>
